<svg width="25" height="25" viewBox="0 0 25 25" fill="none" xmlns="http://www.w3.org/2000/svg">
<path d="M5.70947 4.76953V4.59685H5.53678H4.38086H4.20818V4.76953V19.7965C4.20818 20.1489 4.34815 20.4869 4.59732 20.736L4.71942 20.6139L4.59732 20.736C4.84648 20.9852 5.18441 21.1252 5.53678 21.1252H20.5638H20.7365V20.9525V19.7965V19.6239H20.5638H5.70947V4.76953Z" fill="white" stroke="white" stroke-width="0.345365"/>
<path d="M20.6772 8.83594V8.72138H20.5626H16.5368H16.4222V8.83594V9.98617V10.1007H16.5368H18.3249L14.2364 14.1892L11.8504 11.7976C11.8503 11.7976 11.8503 11.7976 11.8503 11.7975C11.7862 11.7329 11.7099 11.6817 11.6259 11.6467C11.5419 11.6117 11.4518 11.5936 11.3607 11.5936C11.2697 11.5936 11.1795 11.6117 11.0955 11.6467C11.0115 11.6817 10.9353 11.7329 10.8712 11.7975C10.8711 11.7976 10.8711 11.7976 10.871 11.7976L6.67871 15.9957L6.59782 16.0767L6.67876 16.1577L7.48968 16.9686L7.57068 17.0496L7.65168 16.9686L11.3606 13.2597L13.7466 15.6512C13.7467 15.6513 13.7467 15.6513 13.7468 15.6514C13.8109 15.716 13.8871 15.7672 13.9711 15.8022C14.0551 15.8372 14.1453 15.8552 14.2363 15.8552C14.3273 15.8552 14.4175 15.8372 14.5015 15.8022C14.5855 15.7672 14.6617 15.716 14.7258 15.6514C14.7259 15.6513 14.7259 15.6513 14.726 15.6512L19.2978 11.0739V12.8618V12.9763H19.4124H20.5626H20.6772V12.8618V8.83594Z" fill="white" stroke="white" stroke-width="0.22911"/>
</svg>
