<svg width="20" height="19" viewBox="0 0 20 19" fill="none" xmlns="http://www.w3.org/2000/svg">
<path d="M14.8164 14.0706C17.7746 14.0706 19.4346 10.6655 19.4346 7.38803C19.4346 3.17418 16.5189 0.279828 11.7092 0.279828C5.45227 0.279828 0.961764 5.02572 0.961764 11.0911C0.961764 15.4114 4.00509 18.1567 8.60201 18.1567C10.0705 18.1567 11.4964 17.9014 12.7733 17.3693L12.5179 16.0498C11.4325 16.5606 10.1556 16.7734 8.98509 16.7734C4.98407 16.7734 2.55792 14.709 2.5792 10.9208C2.5792 5.70675 6.32484 1.64188 11.4751 1.64188C15.54 1.64188 17.8597 3.79136 17.8597 7.49444C17.8597 9.72905 16.9446 12.7511 15.1143 12.7511C14.0289 12.7511 13.8587 11.9424 14.0502 10.7293L15.1143 4.5788H13.433L13.1989 5.89828C12.7307 4.87675 11.8156 4.36598 10.4748 4.36598C7.36766 4.36598 5.23945 7.23905 5.23945 10.4101C5.23945 12.6234 6.51638 14.0706 8.70843 14.0706C10.1982 14.0706 11.6453 13.3257 12.5179 12.0914C12.6243 13.2831 13.3692 14.0706 14.8164 14.0706ZM12.7733 8.66495C12.6456 10.857 11.1559 12.5596 9.28304 12.5596C7.7933 12.5596 7.04843 11.5593 7.04843 10.1121C7.04843 8.00521 8.34663 5.85572 10.4748 5.85572C12.1348 5.85572 12.901 7.11136 12.7733 8.66495Z" fill="#07A098"/>
<path fill-rule="evenodd" clip-rule="evenodd" d="M13.0465 17.5151L12.8664 17.5902C11.5564 18.136 10.0986 18.3961 8.60295 18.3961C6.25736 18.3961 4.28525 17.6951 2.89695 16.4202C1.50649 15.1433 0.723145 13.3101 0.723145 11.0909C0.723145 4.89789 5.31625 0.0400391 11.7101 0.0400391C14.163 0.0400391 16.1574 0.778776 17.5405 2.07896C18.9249 3.38028 19.6751 5.22362 19.6751 7.38779C19.6751 9.06253 19.2518 10.779 18.4391 12.0847C17.6245 13.3936 16.4025 14.3099 14.8173 14.3099C14.0503 14.3099 13.4393 14.1005 13.0041 13.7049C12.6971 13.4258 12.4914 13.0665 12.3768 12.6541C11.4487 13.696 10.0977 14.3099 8.70936 14.3099C7.55846 14.3099 6.62333 13.9284 5.97736 13.2332C5.33354 12.5403 5.00083 11.5616 5.00083 10.4098C5.00083 7.15147 7.19542 4.12619 10.4758 4.12619C11.1757 4.12619 11.7827 4.25947 12.2823 4.53993C12.5945 4.71519 12.8592 4.94488 13.0757 5.22649L13.2332 4.33901H15.3998L14.2878 10.7664C14.2877 10.767 14.2876 10.7676 14.2875 10.7682C14.1929 11.3685 14.1993 11.8132 14.3239 12.0991C14.3828 12.234 14.467 12.3312 14.5831 12.3976C14.7026 12.466 14.8725 12.5113 15.1153 12.5113C15.8794 12.5113 16.5064 11.8786 16.9552 10.8636C17.3969 9.86474 17.6211 8.58463 17.6211 7.4942C17.6211 5.69409 17.0588 4.30094 16.0305 3.35563C14.9994 2.40769 13.4682 1.8812 11.476 1.8812C6.47011 1.8812 2.81969 5.82645 2.81969 10.9206V10.922C2.80935 12.7625 3.39182 14.1543 4.43461 15.0891C5.48153 16.0275 7.0241 16.5336 8.98603 16.5336C10.1309 16.5336 11.371 16.325 12.4168 15.8328L12.6955 15.7017L13.0465 17.5151ZM14.0502 10.7293C13.8587 11.9424 14.0289 12.7511 15.1143 12.7511C16.9446 12.7511 17.8597 9.72905 17.8597 7.49444C17.8597 3.79136 15.54 1.64188 11.4751 1.64188C6.32484 1.64188 2.5792 5.70675 2.5792 10.9208C2.55792 14.709 4.98407 16.7734 8.98509 16.7734C10.0758 16.7734 11.2598 16.5884 12.2943 16.1499C12.37 16.1178 12.4439 16.0846 12.5179 16.0498L12.7733 17.3693C11.4964 17.9014 10.0705 18.1567 8.60201 18.1567C4.00509 18.1567 0.961764 15.4114 0.961764 11.0911C0.961764 5.02572 5.45227 0.279828 11.7092 0.279828C16.5189 0.279828 19.4346 3.17418 19.4346 7.38803C19.4346 10.6655 17.7746 14.0706 14.8164 14.0706C13.5095 14.0706 12.7763 13.4282 12.5679 12.426C12.5455 12.3184 12.5282 12.2069 12.5179 12.0914C12.4522 12.1843 12.3841 12.2743 12.3121 12.3616C11.428 13.4335 10.0859 14.0706 8.70843 14.0706C6.51638 14.0706 5.23945 12.6234 5.23945 10.4101C5.23945 7.23905 7.36766 4.36598 10.4748 4.36598C11.6583 4.36598 12.511 4.76368 13.0166 5.55955C13.0838 5.66535 13.144 5.77842 13.1989 5.89828L13.433 4.5788H15.1143L14.0502 10.7293ZM12.5355 8.64509C12.596 7.90915 12.4424 7.2704 12.1041 6.82172C11.7714 6.38046 11.2395 6.09504 10.4758 6.09504C9.50164 6.09504 8.71163 6.58417 8.15728 7.33579C7.60019 8.09112 7.28892 9.10411 7.28892 10.1119C7.28892 10.7972 7.46537 11.3469 7.78927 11.7217C8.10862 12.0912 8.59621 12.3198 9.28397 12.3198C10.9934 12.3198 12.4124 10.7562 12.5351 8.65078L12.5355 8.64509ZM9.28304 12.5596C11.1559 12.5596 12.6456 10.857 12.7733 8.66495C12.901 7.11136 12.1348 5.85572 10.4748 5.85572C8.34663 5.85572 7.04843 8.00521 7.04843 10.1121C7.04843 11.5593 7.7933 12.5596 9.28304 12.5596Z" fill="#07A098"/>
</svg>
