<svg width="17" height="23" viewBox="0 0 17 23" fill="none" xmlns="http://www.w3.org/2000/svg">
<path d="M7.76922 13.3552C6.40922 13.6352 5.59922 14.5152 5.59922 15.7652C5.59922 17.1052 6.70922 18.1852 8.08922 18.1852C10.1392 18.1852 11.7992 16.5252 11.7992 14.4752C11.7992 13.4052 11.6492 12.3552 11.3392 11.3552C10.5492 12.4252 9.13922 13.0752 7.76922 13.3552ZM9.69922 0.865234C9.69922 0.865234 10.4392 3.51523 10.4392 5.66523C10.4392 7.72523 9.08922 9.39523 7.02922 9.39523C4.95922 9.39523 3.39922 7.72523 3.39922 5.66523L3.42922 5.30523C1.40922 7.70523 0.199219 10.8152 0.199219 14.1952C0.199219 18.6152 3.77922 22.1952 8.19922 22.1952C12.6192 22.1952 16.1992 18.6152 16.1992 14.1952C16.1992 8.80523 13.6092 3.99523 9.69922 0.865234ZM8.19922 20.1952C4.88922 20.1952 2.19922 17.5052 2.19922 14.1952C2.19922 12.6652 2.49922 11.1552 3.05922 9.76523C4.06922 10.7752 5.46922 11.3952 7.02922 11.3952C9.68922 11.3952 11.7792 9.56523 12.3092 6.96523C13.5392 9.16523 14.1992 11.6352 14.1992 14.1952C14.1992 17.5052 11.5092 20.1952 8.19922 20.1952Z" fill="#07A098"/>
</svg>
