<svg width="41" height="41" viewBox="0 0 41 41" fill="none" xmlns="http://www.w3.org/2000/svg">
<g clip-path="url(#clip0_2798:32538)">
<circle cx="20.5527" cy="20.6484" r="20" fill="#DAF2FF"/>
<path fill-rule="evenodd" clip-rule="evenodd" d="M24.3601 16.8408C24.3601 18.9455 22.6554 20.6503 20.5506 20.6503C18.4458 20.6503 16.7411 18.9455 16.7411 16.8408C16.7411 14.736 18.4458 13.0312 20.5506 13.0312C22.6554 13.0312 24.3601 14.736 24.3601 16.8408ZM12.9316 26.3648C12.9316 23.8314 18.0078 22.5552 20.5507 22.5552C23.0935 22.5552 28.1697 23.8314 28.1697 26.3648V27.3172C28.1697 27.841 27.7412 28.2695 27.2174 28.2695H13.884C13.3602 28.2695 12.9316 27.841 12.9316 27.3172V26.3648Z" fill="#001E2F"/>
</g>
<defs>
<clipPath id="clip0_2798:32538">
<rect width="40" height="40" fill="white" transform="translate(0.552734 0.648438)"/>
</clipPath>
</defs>
</svg>
