<svg width="25" height="25" viewBox="0 0 25 25" fill="none" xmlns="http://www.w3.org/2000/svg">
<path opacity="0.3" d="M5.80078 18.4765V19.3965H6.72078L15.7808 10.3365L14.8608 9.4165L5.80078 18.4765Z" fill="#07A098"/>
<path d="M21.5108 7.43648C21.9008 7.04648 21.9008 6.41648 21.5108 6.02648L19.1708 3.68648C18.9708 3.48648 18.7208 3.39648 18.4608 3.39648C18.2008 3.39648 17.9508 3.49648 17.7608 3.68648L15.9308 5.51648L19.6808 9.26648L21.5108 7.43648ZM3.80078 17.6465V21.3965H7.55078L18.6108 10.3365L14.8608 6.58648L3.80078 17.6465ZM6.72078 19.3965H5.80078V18.4765L14.8608 9.41648L15.7808 10.3365L6.72078 19.3965Z" fill="#07A098"/>
</svg>
