<svg width="12" height="16" viewBox="0 0 12 16" fill="none" xmlns="http://www.w3.org/2000/svg">
<path d="M11.0002 13.8333C11.0002 14.75 10.2502 15.5 9.3335 15.5H2.66683C1.75016 15.5 1.00016 14.75 1.00016 13.8333V5.5C1.00016 4.58333 1.75016 3.83333 2.66683 3.83333H9.3335C10.2502 3.83333 11.0002 4.58333 11.0002 5.5V13.8333ZM1.00016 1.33333H3.0835L3.67516 0.741667C3.82516 0.591667 4.04183 0.5 4.25849 0.5H7.74183C7.9585 0.5 8.17516 0.591667 8.32516 0.741667L8.91683 1.33333H11.0002C11.4585 1.33333 11.8335 1.70833 11.8335 2.16667C11.8335 2.625 11.4585 3 11.0002 3H1.00016C0.541828 3 0.166828 2.625 0.166828 2.16667C0.166828 1.70833 0.541828 1.33333 1.00016 1.33333Z" fill="#07A098"/>
</svg>
