<svg width="18" height="17" viewBox="0 0 18 17" fill="none" xmlns="http://www.w3.org/2000/svg">
<path d="M2.44369 3.5472H0.777023V15.2139C0.777023 16.1305 1.52702 16.8805 2.44369 16.8805H14.1104V15.2139H2.44369V3.5472ZM15.777 0.213867H5.77702C4.86036 0.213867 4.11036 0.963867 4.11036 1.88053V11.8805C4.11036 12.7972 4.86036 13.5472 5.77702 13.5472H15.777C16.6937 13.5472 17.4437 12.7972 17.4437 11.8805V1.88053C17.4437 0.963867 16.6937 0.213867 15.777 0.213867ZM15.777 11.8805H5.77702V1.88053H15.777V11.8805ZM7.44369 6.0472H14.1104V7.71387H7.44369V6.0472ZM7.44369 8.5472H10.777V10.2139H7.44369V8.5472ZM7.44369 3.5472H14.1104V5.21387H7.44369V3.5472Z" fill="#07A098" fill-opacity="0.9"/>
</svg>
