<svg width="25" height="25" viewBox="0 0 25 25" fill="none" xmlns="http://www.w3.org/2000/svg">
<path fill-rule="evenodd" clip-rule="evenodd" d="M9.5 19.2188C8.5 19.2188 5.5 16.2188 5.5 15.2188C5.5 14.8857 5.833 14.2188 6.5 13.2188L2.5 12.2188L4.5 9.21875L8.5 10.2188C12.5 4.21875 18.5 2.21875 22.5 2.21875C22.5 6.21875 20.5 12.2188 14.5 16.2188L15.5 20.2188L12.5 22.2188L11.5 18.2188C10.5 18.8857 9.833 19.2188 9.5 19.2188ZM8.54 16.1788C8.894 16.5337 9.259 16.8507 9.563 17.0688C9.786 16.9448 10.064 16.7728 10.391 16.5548L13.391 14.5548C17.289 11.9548 19.63 8.13875 20.299 4.41975C16.58 5.08975 12.763 7.42975 10.164 11.3278L8.164 14.3278C7.946 14.6547 7.774 14.9328 7.649 15.1558C7.869 15.4598 8.185 15.8258 8.539 16.1798L8.54 16.1788Z" fill="#07A098"/>
<path d="M16 10.2188C16.8284 10.2188 17.5 9.54718 17.5 8.71875C17.5 7.89032 16.8284 7.21875 16 7.21875C15.1716 7.21875 14.5 7.89032 14.5 8.71875C14.5 9.54718 15.1716 10.2188 16 10.2188Z" fill="#07A098"/>
<path fill-rule="evenodd" clip-rule="evenodd" d="M4.5 16.2188L5.5 17.7188C4.833 18.3858 4.5 19.2188 4.5 20.2188C5.5 20.2188 6.333 19.8858 7 19.2188L8.5 20.2188C7.167 21.5518 5.167 22.2188 2.5 22.2188C2.5 19.5517 3.167 17.5517 4.5 16.2188Z" fill="#07A098"/>
</svg>
