<svg width="25" height="24" viewBox="0 0 25 24" fill="none" xmlns="http://www.w3.org/2000/svg">
<path d="M22.9966 12.2243C22.9966 11.38 22.9281 10.7639 22.7799 10.125H13.139V13.9356H18.798C18.6839 14.8826 18.0678 16.3088 16.6987 17.2671L16.6795 17.3947L19.7278 19.7562L19.9389 19.7772C21.8785 17.986 22.9966 15.3504 22.9966 12.2243Z" fill="#4285F4"/>
<path d="M13.1389 22.2658C15.9113 22.2658 18.2388 21.353 19.9388 19.7786L16.6986 17.2685C15.8315 17.8732 14.6677 18.2953 13.1389 18.2953C10.4235 18.2953 8.11885 16.5041 7.29731 14.0283L7.17689 14.0385L4.00727 16.4915L3.96582 16.6068C5.65437 19.9611 9.1228 22.2658 13.1389 22.2658Z" fill="#34A853"/>
<path d="M7.29735 14.03C7.08058 13.3911 6.95513 12.7065 6.95513 11.9992C6.95513 11.2918 7.08058 10.6072 7.28595 9.96832L7.28021 9.83224L4.07087 7.33984L3.96587 7.38979C3.26993 8.78174 2.87061 10.3448 2.87061 11.9992C2.87061 13.6535 3.26993 15.2165 3.96587 16.6085L7.29735 14.03Z" fill="#FBBC05"/>
<path d="M13.1389 5.70086C15.067 5.70086 16.3677 6.53374 17.1093 7.22975L20.0072 4.40024C18.2274 2.7459 15.9113 1.73047 13.1389 1.73047C9.1228 1.73047 5.65437 4.03512 3.96582 7.38942L7.2859 9.96795C8.11885 7.49214 10.4235 5.70086 13.1389 5.70086Z" fill="#EB4335"/>
</svg>
