<svg width="31" height="31" viewBox="0 0 31 31" fill="none" xmlns="http://www.w3.org/2000/svg">
<path d="M14.5098 23.0078H17.0098V20.5078H14.5098V23.0078ZM15.7598 3.00781C8.85977 3.00781 3.25977 8.60781 3.25977 15.5078C3.25977 22.4078 8.85977 28.0078 15.7598 28.0078C22.6598 28.0078 28.2598 22.4078 28.2598 15.5078C28.2598 8.60781 22.6598 3.00781 15.7598 3.00781ZM15.7598 25.5078C10.2473 25.5078 5.75977 21.0203 5.75977 15.5078C5.75977 9.99531 10.2473 5.50781 15.7598 5.50781C21.2723 5.50781 25.7598 9.99531 25.7598 15.5078C25.7598 21.0203 21.2723 25.5078 15.7598 25.5078ZM15.7598 8.00781C12.9973 8.00781 10.7598 10.2453 10.7598 13.0078H13.2598C13.2598 11.6328 14.3848 10.5078 15.7598 10.5078C17.1348 10.5078 18.2598 11.6328 18.2598 13.0078C18.2598 15.5078 14.5098 15.1953 14.5098 19.2578H17.0098C17.0098 16.4453 20.7598 16.1328 20.7598 13.0078C20.7598 10.2453 18.5223 8.00781 15.7598 8.00781Z" fill="#07A098"/>
</svg>
