<svg width="32" height="31" viewBox="0 0 32 31" fill="none" xmlns="http://www.w3.org/2000/svg">
<path d="M0.5 15.4313C0.5 7.00699 7.32925 0.177734 15.7536 0.177734V0.177734C24.1779 0.177734 31.0071 7.00699 31.0071 15.4313V15.4313C31.0071 23.8556 24.1779 30.6849 15.7536 30.6849V30.6849C7.32925 30.6849 0.5 23.8556 0.5 15.4313V15.4313Z" fill="#0EB4F6"/>
<path d="M14.7063 10.9895C15.6824 10.9895 16.5309 11.1742 17.252 11.5435C17.9731 11.9128 18.527 12.4317 18.9139 13.0999C19.3009 13.7594 19.4943 14.5245 19.4943 15.395C19.4943 16.0897 19.38 16.758 19.1514 17.3999C18.9227 18.033 18.5886 18.5474 18.1489 18.9431C17.7181 19.3388 17.2124 19.5367 16.6321 19.5367C16.1924 19.5367 15.8539 19.4267 15.6164 19.2069C15.379 18.9871 15.2427 18.6881 15.2076 18.31C14.935 18.6881 14.5876 18.9871 14.1655 19.2069C13.7523 19.4267 13.3126 19.5367 12.8465 19.5367C12.1782 19.5367 11.6506 19.3344 11.2637 18.9299C10.8856 18.5166 10.6966 17.9627 10.6966 17.268C10.6966 16.6085 10.8329 15.993 11.1055 15.4214C11.3868 14.8498 11.7738 14.3926 12.2662 14.0496C12.7586 13.6979 13.317 13.522 13.9413 13.522C14.7767 13.522 15.3395 13.8386 15.6296 14.4717L15.7747 13.6539H16.8167L16.1572 17.4658C16.1309 17.6329 16.1177 17.7868 16.1177 17.9275C16.1177 18.4551 16.3507 18.7189 16.8167 18.7189C17.1685 18.7189 17.4718 18.5518 17.7268 18.2177C17.9906 17.8835 18.1885 17.4658 18.3204 16.9646C18.4523 16.4546 18.5182 15.9534 18.5182 15.461C18.5182 14.309 18.1709 13.4165 17.4762 12.7834C16.7904 12.1503 15.8187 11.8337 14.5612 11.8337C13.5148 11.8337 12.5696 12.0887 11.7254 12.5987C10.89 13.0999 10.2349 13.7902 9.76008 14.6696C9.28524 15.5489 9.04782 16.5206 9.04782 17.5845C9.03903 18.7453 9.38637 19.6378 10.0898 20.2621C10.7933 20.8952 11.7694 21.2118 13.018 21.2118C13.8446 21.2118 14.5744 21.0623 15.2076 20.7633L15.3658 21.5811C14.5832 21.9065 13.7215 22.0691 12.7806 22.0691C11.8397 22.0691 11.0087 21.8889 10.2877 21.5284C9.57542 21.1766 9.02144 20.6666 8.62574 19.9983C8.23884 19.3388 8.04538 18.5694 8.04538 17.6901C8.04538 16.4502 8.33117 15.3203 8.90273 14.3002C9.4743 13.2714 10.2657 12.4624 11.2769 11.8733C12.297 11.2841 13.4401 10.9895 14.7063 10.9895ZM13.2027 18.6002C13.5984 18.6002 13.9633 18.4859 14.2974 18.2572C14.6316 18.0198 14.8954 17.7033 15.0888 17.3076C15.2823 16.9031 15.379 16.4634 15.379 15.9886C15.379 15.5313 15.2515 15.162 14.9965 14.8806C14.7503 14.5904 14.3986 14.4453 13.9413 14.4453C13.5192 14.4453 13.1455 14.5728 12.8202 14.8278C12.5036 15.074 12.2574 15.4038 12.0815 15.8171C11.9057 16.2216 11.8177 16.6437 11.8177 17.0833C11.8177 17.5494 11.9364 17.9187 12.1739 18.1913C12.4113 18.4639 12.7542 18.6002 13.2027 18.6002ZM23.0252 10.2509L22.8801 16.8459H21.8777L21.7326 10.2509H23.0252ZM22.4317 19.5235C22.203 19.5235 22.0096 19.4443 21.8513 19.2861C21.693 19.1278 21.6139 18.9343 21.6139 18.7057C21.6139 18.4771 21.693 18.2836 21.8513 18.1253C22.0096 17.9671 22.203 17.8879 22.4317 17.8879C22.6515 17.8879 22.8361 17.9671 22.9856 18.1253C23.1439 18.2836 23.2231 18.4771 23.2231 18.7057C23.2231 18.9343 23.1439 19.1278 22.9856 19.2861C22.8361 19.4443 22.6515 19.5235 22.4317 19.5235Z" fill="white"/>
</svg>
