<svg width="25" height="25" viewBox="0 0 25 25" fill="none" xmlns="http://www.w3.org/2000/svg">
<path d="M16.8457 6.90234V18.4023C16.8457 20.6123 15.0557 22.4023 12.8457 22.4023C10.6357 22.4023 8.8457 20.6123 8.8457 18.4023V5.90234C8.8457 4.52234 9.9657 3.40234 11.3457 3.40234C12.7257 3.40234 13.8457 4.52234 13.8457 5.90234V16.4023C13.8457 16.9523 13.3957 17.4023 12.8457 17.4023C12.2957 17.4023 11.8457 16.9523 11.8457 16.4023V6.90234H10.3457V16.4023C10.3457 17.7823 11.4657 18.9023 12.8457 18.9023C14.2257 18.9023 15.3457 17.7823 15.3457 16.4023V5.90234C15.3457 3.69234 13.5557 1.90234 11.3457 1.90234C9.1357 1.90234 7.3457 3.69234 7.3457 5.90234V18.4023C7.3457 21.4423 9.8057 23.9023 12.8457 23.9023C15.8857 23.9023 18.3457 21.4423 18.3457 18.4023V6.90234H16.8457Z" fill="#011B25"/>
</svg>
