<svg width="25" height="25" viewBox="0 0 25 25" fill="none" xmlns="http://www.w3.org/2000/svg">
<path d="M20.3457 4.90234H17.1757L15.3457 2.90234H9.3457L7.5157 4.90234H4.3457C3.2457 4.90234 2.3457 5.80234 2.3457 6.90234V18.9023C2.3457 20.0023 3.2457 20.9023 4.3457 20.9023H20.3457C21.4457 20.9023 22.3457 20.0023 22.3457 18.9023V6.90234C22.3457 5.80234 21.4457 4.90234 20.3457 4.90234ZM20.3457 18.9023H4.3457V6.90234H8.3957L10.2257 4.90234H14.4657L16.2957 6.90234H20.3457V18.9023ZM12.3457 7.90234C9.5857 7.90234 7.3457 10.1423 7.3457 12.9023C7.3457 15.6623 9.5857 17.9023 12.3457 17.9023C15.1057 17.9023 17.3457 15.6623 17.3457 12.9023C17.3457 10.1423 15.1057 7.90234 12.3457 7.90234ZM12.3457 15.9023C10.6957 15.9023 9.3457 14.5523 9.3457 12.9023C9.3457 11.2523 10.6957 9.90234 12.3457 9.90234C13.9957 9.90234 15.3457 11.2523 15.3457 12.9023C15.3457 14.5523 13.9957 15.9023 12.3457 15.9023Z" fill="#011B25"/>
</svg>
