<svg width="25" height="25" viewBox="0 0 25 25" fill="none" xmlns="http://www.w3.org/2000/svg">
<path d="M15.8457 11.9023C16.6741 11.9023 17.3457 11.2308 17.3457 10.4023C17.3457 9.57392 16.6741 8.90234 15.8457 8.90234C15.0173 8.90234 14.3457 9.57392 14.3457 10.4023C14.3457 11.2308 15.0173 11.9023 15.8457 11.9023Z" fill="#011B25"/>
<path d="M8.8457 11.9023C9.67413 11.9023 10.3457 11.2308 10.3457 10.4023C10.3457 9.57392 9.67413 8.90234 8.8457 8.90234C8.01728 8.90234 7.3457 9.57392 7.3457 10.4023C7.3457 11.2308 8.01728 11.9023 8.8457 11.9023Z" fill="#011B25"/>
<path d="M12.3457 16.9023C10.8657 16.9023 9.5957 16.0923 8.8957 14.9023H7.2257C8.0257 16.9523 10.0157 18.4023 12.3457 18.4023C14.6757 18.4023 16.6657 16.9523 17.4657 14.9023H15.7957C15.1057 16.0923 13.8257 16.9023 12.3457 16.9023ZM12.3357 2.90234C6.8157 2.90234 2.3457 7.38234 2.3457 12.9023C2.3457 18.4223 6.8157 22.9023 12.3357 22.9023C17.8657 22.9023 22.3457 18.4223 22.3457 12.9023C22.3457 7.38234 17.8657 2.90234 12.3357 2.90234ZM12.3457 20.9023C7.9257 20.9023 4.3457 17.3223 4.3457 12.9023C4.3457 8.48234 7.9257 4.90234 12.3457 4.90234C16.7657 4.90234 20.3457 8.48234 20.3457 12.9023C20.3457 17.3223 16.7657 20.9023 12.3457 20.9023Z" fill="#011B25"/>
</svg>
