<svg width="25" height="25" viewBox="0 0 25 25" fill="none" xmlns="http://www.w3.org/2000/svg">
<path d="M3.18945 21.4038C3.18945 22.1232 3.77802 22.7118 4.49739 22.7118H20.1926C20.9119 22.7118 21.5005 22.1232 21.5005 21.4038C21.5005 20.6845 20.9119 20.0959 20.1926 20.0959H4.49739C3.77802 20.0959 3.18945 20.6845 3.18945 21.4038ZM9.07515 14.6026H15.6148L16.478 16.6953C16.6742 17.1661 17.132 17.48 17.6421 17.48C18.5446 17.48 19.1462 16.5514 18.7931 15.7274L13.7183 3.99525C13.4829 3.44592 12.9466 3.09277 12.345 3.09277C11.7433 3.09277 11.2071 3.44592 10.9717 3.99525L5.89687 15.7274C5.54373 16.5514 6.15846 17.48 7.06093 17.48C7.57103 17.48 8.0288 17.1661 8.22499 16.6953L9.07515 14.6026ZM12.345 5.68248L14.7908 12.2483H9.89915L12.345 5.68248Z" fill="#011B25"/>
</svg>
